<?xml version="1.0" encoding="UTF-8"?>
<!-- Generated by Pixelmator Pro 3.6.2 -->
<svg width="253" height="225" viewBox="0 0 253 225" xmlns="http://www.w3.org/2000/svg">
    <path id="Path" fill="#00aab7" stroke="none" d="M 33.676888 71.798065 C 33.676888 71.798065 29.641308 41.671082 52.508373 18.811157 C 75.37043 -4.048813 102.024475 -4.489059 122.443039 4.288254 C 153.10643 17.470139 161.710983 48.671753 161.710983 48.671753 C 161.710983 48.671753 172.381836 30.103638 195.604385 40.333115 C 211.476059 47.328369 211.47493 71.806366 211.47493 71.806366 C 211.47493 71.806366 251.81871 76.382568 253.162872 115.918915 C 254.506973 155.459961 219.805603 163.527344 203.130615 163.526581 L 162.785645 163.524689 L 96.343697 225.998596 L 96.074623 163.25058 C 96.074623 163.25058 79.399628 163.520798 49.810604 163.519409 C 20.22061 163.518036 -1.490505 144.422028 -1.489161 115.641029 C -1.487465 79.328125 33.676888 71.798065 33.676888 71.798065 Z"/>
    <path id="path1" fill="#24343d" stroke="none" d="M 198.686798 94.709274 C 198.686401 103.475372 191.579071 110.581039 182.814117 110.580635 C 178.649078 110.580437 174.867172 108.973259 172.032272 106.351128 L 149.260513 122.520058 C 150.037476 124.392097 150.468338 126.440125 150.468246 128.594116 C 150.467834 137.360107 143.361481 144.46579 134.59549 144.465378 C 125.829498 144.464966 118.723846 137.358627 118.724258 128.592636 C 118.724487 123.646637 120.98568 119.231743 124.532814 116.321907 L 111.034973 91.657379 C 109.731941 92.003128 108.358948 92.189148 106.949951 92.189087 C 102.816956 92.188904 99.057022 90.609009 96.232132 88.02388 L 73.237381 104.352516 C 74.051285 106.261551 74.503181 108.362572 74.503082 110.569572 C 74.50267 119.335571 67.396355 126.441238 58.63036 126.440834 C 49.864338 126.440422 42.758682 119.334084 42.759094 110.568085 C 42.759502 101.803085 49.865822 94.697006 58.631844 94.697418 C 62.737831 94.697617 66.477745 96.256287 69.290649 98.814827 L 92.450394 82.784515 C 91.56749 80.811066 91.07357 78.619659 91.073677 76.316559 C 91.074089 67.550842 98.180443 60.444977 106.946434 60.445389 C 115.711449 60.445801 122.817101 67.552322 122.816689 76.318039 C 122.81646 81.232742 120.582245 85.626129 117.072136 88.535446 L 130.250961 113.328178 C 131.628983 112.934235 133.085983 112.721306 134.591995 112.721382 C 138.750961 112.721573 142.537933 114.322746 145.367767 116.945877 L 168.272507 101.09095 C 167.410599 99.138908 166.931763 96.978989 166.931854 94.702484 C 166.932266 85.936798 174.038559 78.830917 182.80455 78.831329 C 191.570541 78.831741 198.676224 85.938278 198.675812 94.703964 L 198.686798 94.709274 Z M 58.647533 101.159836 C 53.445538 101.159592 49.233334 105.372391 49.233093 110.574394 C 49.232849 115.77639 53.444656 119.988586 58.646652 119.988831 C 63.848648 119.989075 68.061859 115.777267 68.062103 110.575272 C 68.062347 105.373268 63.849529 101.16008 58.647533 101.159836 Z M 106.96212 66.90799 C 101.760124 66.907745 97.546944 71.120132 97.5467 76.322144 C 97.546463 81.524139 101.759247 85.736938 106.961243 85.737183 C 112.162262 85.737427 116.375443 81.525024 116.375679 76.323029 C 116.375923 71.121017 112.163139 66.908234 106.96212 66.90799 Z M 134.601685 119.18438 C 129.399689 119.184135 125.187477 123.396942 125.187233 128.598938 C 125.186996 133.800934 129.398804 138.013138 134.6008 138.013382 C 139.802826 138.013611 144.016037 133.801819 144.016281 128.599823 C 144.016525 123.39782 139.803711 119.184616 134.601685 119.18438 Z M 182.815292 85.299225 C 177.613266 85.298981 173.400055 89.511505 173.399811 94.713394 C 173.399582 99.915192 177.612396 104.128387 182.814423 104.128632 C 188.016388 104.128876 192.228622 99.916069 192.228851 94.714264 C 192.229095 89.512375 188.017258 85.299469 182.815292 85.299225 Z"/>
</svg>
