<svg width="80" height="57" viewBox="0 0 80 57" fill="none" xmlns="http://www.w3.org/2000/svg">
<g id="Group 64">
<path id="Vector" d="M33.2912 6.4365C35.8735 3.75037 39.4615 2.08289 43.4388 2.08289C48.7202 2.08289 53.3268 5.02855 55.7794 9.40163C57.9738 8.42064 60.3506 7.91432 62.7543 7.91582C72.279 7.91582 80 15.7082 80 25.3108C80 34.9199 72.279 42.7122 62.7543 42.7122C61.5929 42.7122 60.4574 42.5955 59.3544 42.3749C57.1938 46.2289 53.0738 48.8307 48.3504 48.8307C46.3715 48.8307 44.5028 48.3765 42.8354 47.559C40.6423 52.7106 35.5426 56.3246 29.5929 56.3246C23.3966 56.3246 18.1217 52.4057 16.0973 46.9101C15.2149 47.0983 14.2936 47.1956 13.3528 47.1956C5.97567 47.1956 0 41.1551 0 33.7066C0 28.7106 2.68613 24.3505 6.6764 22.0213C5.82897 20.0748 5.39377 17.9739 5.39822 15.8509C5.39822 7.27997 12.3536 0.331068 20.9375 0.331068C25.9724 0.32458 30.4558 2.72523 33.2912 6.4365Z" fill="#00A1E0"/>
<path id="Vector_2" d="M11.588 29.366C11.5361 29.4958 11.6075 29.5217 11.6205 29.5477C11.7697 29.658 11.9254 29.7358 12.0746 29.8267C12.8922 30.2614 13.6578 30.3847 14.4688 30.3847C16.1103 30.3847 17.129 29.5088 17.129 28.1073V28.0813C17.129 26.7837 15.9806 26.3101 14.897 25.9727L14.7543 25.9273C13.9432 25.6612 13.236 25.4341 13.236 24.9021V24.8762C13.236 24.4155 13.6448 24.0781 14.2806 24.0781C14.9879 24.0781 15.8248 24.3117 16.3634 24.6101C16.3634 24.6101 16.5191 24.7139 16.5775 24.5582C16.6099 24.4739 16.8824 23.7407 16.9084 23.6629C16.9408 23.5785 16.8824 23.5136 16.8305 23.4812C16.2141 23.1049 15.3642 22.8518 14.4818 22.8518H14.3196C12.8208 22.8518 11.7697 23.7602 11.7697 25.0578V25.0838C11.7697 26.4528 12.9246 26.9005 14.0081 27.2119L14.1833 27.2638C14.9749 27.5039 15.6561 27.718 15.6561 28.2695V28.2955C15.6561 28.8015 15.2149 29.1843 14.5012 29.1843C14.2222 29.1843 13.3398 29.1779 12.3861 28.5745C12.2693 28.5096 12.2044 28.4577 12.1136 28.4058C12.0681 28.3733 11.9514 28.3279 11.8995 28.4771L11.588 29.366ZM35.614 29.366C35.5621 29.4958 35.6334 29.5217 35.6464 29.5477C35.7956 29.658 35.9514 29.7358 36.1006 29.8267C36.9181 30.2614 37.6837 30.3847 38.4947 30.3847C40.1363 30.3847 41.1549 29.5088 41.1549 28.1073V28.0813C41.1549 26.7837 40.0065 26.3101 38.923 25.9727L38.7802 25.9273C37.9692 25.6612 37.262 25.4341 37.262 24.9021V24.8762C37.262 24.4155 37.6707 24.0781 38.3066 24.0781C39.0138 24.0781 39.8508 24.3117 40.3893 24.6101C40.3893 24.6101 40.545 24.7139 40.6034 24.5582C40.6359 24.4739 40.9084 23.7407 40.9343 23.6629C40.9668 23.5785 40.9084 23.5136 40.8565 23.4812C40.2401 23.1049 39.3901 22.8518 38.5077 22.8518H38.3455C36.8467 22.8518 35.7956 23.7602 35.7956 25.0578V25.0838C35.7956 26.4528 36.9505 26.9005 38.0341 27.2119L38.2093 27.2638C39.0008 27.5039 39.6821 27.718 39.6821 28.2695V28.2955C39.6821 28.8015 39.2409 29.1843 38.5272 29.1843C38.2482 29.1843 37.3658 29.1779 36.412 28.5745C36.2952 28.5096 36.2304 28.4577 36.1395 28.4058C36.1071 28.3863 35.9708 28.3344 35.9254 28.4771L35.614 29.366ZM52.0098 26.615C52.0098 27.4066 51.8605 28.0359 51.5685 28.4771C51.2831 28.9118 50.8419 29.126 50.2385 29.126C49.6286 29.126 49.1939 28.9118 48.9084 28.4771C48.6229 28.0359 48.4737 27.4066 48.4737 26.615C48.4737 25.8234 48.6164 25.2006 48.9084 24.7594C49.1939 24.3247 49.6286 24.117 50.2385 24.117C50.8484 24.117 51.2831 24.3247 51.575 24.7594C51.8605 25.1941 52.0098 25.817 52.0098 26.615ZM53.3788 25.1422C53.2425 24.688 53.0349 24.2857 52.7559 23.9548C52.471 23.6121 52.1115 23.3391 51.7048 23.1568C51.2896 22.9621 50.79 22.8648 50.2385 22.8648C49.6805 22.8648 49.1874 22.9621 48.7721 23.1568C48.3504 23.3514 48 23.6239 47.721 23.9548C47.442 24.2922 47.2344 24.688 47.0982 25.1422C46.9619 25.5964 46.897 26.0895 46.897 26.615C46.897 27.1406 46.9619 27.6337 47.0982 28.0878C47.2344 28.542 47.442 28.9443 47.721 29.2752C48 29.6126 48.3569 29.8786 48.7721 30.0667C49.1939 30.2549 49.687 30.3522 50.2385 30.3522C50.7964 30.3522 51.2896 30.2549 51.7048 30.0667C52.12 29.8786 52.4769 29.6061 52.7559 29.2752C53.0349 28.9443 53.2425 28.542 53.3788 28.0878C53.515 27.6337 53.5799 27.1406 53.5799 26.615C53.5799 26.0895 53.515 25.5899 53.3788 25.1422ZM64.6294 28.9118C64.584 28.7756 64.4542 28.8275 64.4542 28.8275C64.2531 28.9054 64.0454 28.9767 63.8183 29.0092C63.5913 29.0416 63.3382 29.0611 63.0657 29.0611C62.4039 29.0611 61.8784 28.8664 61.4956 28.4771C61.1192 28.0878 60.9051 27.4585 60.9051 26.602C60.9051 25.8234 61.0933 25.2395 61.4307 24.7983C61.7616 24.3571 62.2741 24.13 62.9489 24.13C63.5134 24.13 63.9481 24.1949 64.3958 24.3376C64.3958 24.3376 64.5061 24.3831 64.558 24.2403C64.6748 23.9094 64.7656 23.6693 64.8954 23.306C64.9343 23.2022 64.8435 23.1568 64.811 23.1438C64.6359 23.0724 64.2141 22.9621 63.8962 22.9167C63.5977 22.8713 63.2539 22.8453 62.8711 22.8453C62.2936 22.8453 61.781 22.9427 61.3463 23.1373C60.9116 23.332 60.5353 23.598 60.2433 23.9354C59.9436 24.2826 59.7164 24.6863 59.575 25.1227C59.4258 25.5769 59.3544 26.07 59.3544 26.5955C59.3544 27.731 59.6594 28.6523 60.2693 29.3206C60.8727 29.9954 61.7875 30.3393 62.9749 30.3393C63.6756 30.3393 64.3958 30.1965 64.9149 29.9954C64.9149 29.9954 65.0122 29.95 64.9732 29.8332L64.6294 28.9118ZM67.03 25.8494C67.0949 25.4082 67.2182 25.0384 67.4063 24.7529C67.6918 24.3182 68.12 24.0781 68.7299 24.0781C69.3398 24.0781 69.7421 24.3182 70.0276 24.7529C70.2222 25.0384 70.3001 25.4212 70.3325 25.8494H67.03ZM71.6367 24.8826C71.5199 24.4414 71.2344 24.0002 71.0398 23.7991C70.7413 23.4747 70.4493 23.2541 70.1574 23.1308C69.7366 22.953 69.2841 22.8625 68.8273 22.8648C68.2498 22.8648 67.7243 22.9621 67.296 23.1633C66.8678 23.3644 66.511 23.6369 66.2255 23.9808C65.9465 24.3182 65.7324 24.7269 65.5961 25.1811C65.4599 25.6353 65.395 26.1349 65.395 26.6604C65.395 27.1925 65.4664 27.6921 65.6026 28.1397C65.7453 28.5939 65.9724 28.9897 66.2774 29.3206C66.5823 29.6515 66.9716 29.911 67.4453 30.0927C67.9124 30.2744 68.4769 30.3652 69.1257 30.3652C70.4623 30.3587 71.1695 30.0603 71.4615 29.9045C71.5134 29.8786 71.5588 29.8267 71.5004 29.6839L71.1955 28.834C71.1501 28.7107 71.0203 28.7561 71.0203 28.7561C70.6894 28.8794 70.2158 29.1 69.1192 29.1C68.399 29.1 67.867 28.8859 67.5361 28.555C67.1922 28.2176 67.0235 27.718 66.9976 27.0108L71.6367 27.0173C71.6367 27.0173 71.7599 27.0173 71.7729 26.894C71.7794 26.8291 71.9351 25.9273 71.6367 24.8826ZM29.8913 25.8494C29.9562 25.4082 30.0795 25.0384 30.2677 24.7529C30.5531 24.3182 30.9814 24.0781 31.5913 24.0781C32.2012 24.0781 32.6034 24.3182 32.8889 24.7529C33.0771 25.0384 33.1614 25.4212 33.1939 25.8494H29.8913ZM34.5045 24.8826C34.3877 24.4414 34.1022 24.0002 33.914 23.7991C33.6156 23.4747 33.3236 23.2541 33.0316 23.1308C32.6109 22.953 32.1584 22.8625 31.7016 22.8648C31.1241 22.8648 30.5986 22.9621 30.1703 23.1633C29.7421 23.3644 29.3853 23.6369 29.0998 23.9808C28.8208 24.3182 28.6067 24.7269 28.4704 25.1811C28.3342 25.6353 28.2693 26.1349 28.2693 26.6604C28.2693 27.1925 28.3407 27.6921 28.4769 28.1397C28.6196 28.5939 28.8467 28.9897 29.1517 29.3206C29.4566 29.6515 29.8459 29.911 30.3196 30.0927C30.7867 30.2744 31.3512 30.3652 32 30.3652C33.3366 30.3587 34.0438 30.0603 34.3358 29.9045C34.3877 29.8786 34.4331 29.8267 34.3747 29.6839L34.0698 28.834C34.0243 28.7107 33.8946 28.7561 33.8946 28.7561C33.5637 28.8794 33.09 29.1 31.9935 29.1C31.2733 29.1 30.7413 28.8859 30.4104 28.555C30.0665 28.2176 29.8978 27.718 29.8719 27.0108L34.511 27.0173C34.511 27.0173 34.6342 27.0173 34.6472 26.894C34.6472 26.8291 34.8029 25.9273 34.5045 24.8826ZM19.867 28.8859C19.6853 28.7431 19.6594 28.7042 19.601 28.6134C19.5102 28.4706 19.4647 28.2695 19.4647 28.01C19.4647 27.6012 19.601 27.3092 19.88 27.1146C19.8735 27.1146 20.2758 26.7642 21.2231 26.7772C21.8849 26.7837 22.4818 26.8875 22.4818 26.8875V28.9962C22.4818 28.9962 21.8913 29.1195 21.2295 29.1649C20.2823 29.2168 19.867 28.8859 19.867 28.8859ZM21.7162 25.6288C21.528 25.6158 21.2814 25.6093 20.9895 25.6093C20.5937 25.6093 20.2109 25.6612 19.8475 25.7586C19.4842 25.8559 19.1598 26.0051 18.8808 26.2062C18.6018 26.4074 18.3747 26.6669 18.206 26.9719C18.0438 27.2768 17.9595 27.6401 17.9595 28.0424C17.9595 28.4512 18.0308 28.808 18.1736 29.1C18.3163 29.392 18.5175 29.6385 18.777 29.8267C19.0365 30.0148 19.3544 30.1511 19.7243 30.2354C20.0876 30.3198 20.5029 30.3587 20.9505 30.3587C21.4242 30.3587 21.8978 30.3198 22.3585 30.2419C22.8127 30.1641 23.3707 30.0538 23.5264 30.0148C23.6821 29.9759 23.8508 29.9305 23.8508 29.9305C23.9676 29.9045 23.9546 29.7813 23.9546 29.7813V25.538C23.9546 24.6101 23.708 23.9159 23.2149 23.4942C22.7283 23.0659 22.0146 22.8518 21.0868 22.8518C20.7364 22.8518 20.1784 22.8972 19.8475 22.9686C19.8475 22.9686 18.8354 23.1633 18.4201 23.4877C18.4201 23.4877 18.3293 23.5461 18.3812 23.6693L18.7121 24.5517C18.751 24.6685 18.8613 24.6296 18.8613 24.6296C18.8613 24.6296 18.8938 24.6166 18.9392 24.5907C19.8346 24.1041 20.957 24.117 20.957 24.117C21.4566 24.117 21.8459 24.2144 22.1055 24.4155C22.3585 24.6101 22.4883 24.9021 22.4883 25.5185V25.7131C22.0795 25.6612 21.7162 25.6288 21.7162 25.6288ZM59.1144 23.2411C59.1272 23.2093 59.1269 23.1736 59.1135 23.142C59.1002 23.1104 59.0748 23.0854 59.043 23.0724C58.9651 23.04 58.5694 22.9556 58.2644 22.9362C57.6805 22.9037 57.3561 23.0011 57.0706 23.1308C56.7851 23.2606 56.4672 23.4682 56.2855 23.7083V23.1438C56.2855 23.0659 56.2271 23.0011 56.1492 23.0011H54.9619C54.884 23.0011 54.8256 23.0659 54.8256 23.1438V30.0603C54.8256 30.1381 54.8905 30.203 54.9684 30.203H56.1882C56.266 30.203 56.3309 30.1381 56.3309 30.0603V26.602C56.3309 26.1414 56.3828 25.6742 56.4866 25.3822C56.584 25.0968 56.7267 24.8632 56.8954 24.701C57.0641 24.5388 57.2587 24.422 57.4664 24.3571C57.6805 24.2922 57.9205 24.2663 58.0892 24.2663C58.3293 24.2663 58.6018 24.3311 58.6018 24.3311C58.6926 24.3441 58.7381 24.2857 58.7705 24.2079C58.8419 24.0002 59.069 23.3644 59.1144 23.2411Z" fill="white"/>
<path id="Vector_3" d="M47.676 20.0358C47.5268 19.9904 47.3906 19.958 47.2154 19.9255C47.0402 19.8931 46.8261 19.8801 46.586 19.8801C45.749 19.8801 45.0872 20.1202 44.6201 20.5873C44.1594 21.0545 43.848 21.7617 43.6858 22.6895L43.6274 23.001H42.5763C42.5763 23.001 42.4465 22.9945 42.4206 23.1372L42.2454 24.104C42.2324 24.1948 42.2713 24.2532 42.3946 24.2532H43.4198L42.3816 30.0537C42.3038 30.5208 42.2065 30.9036 42.1026 31.1956C41.9988 31.4811 41.9015 31.6952 41.7782 31.8574C41.6614 32.0067 41.5511 32.117 41.3565 32.1818C41.1943 32.2337 41.0126 32.2597 40.8115 32.2597C40.7012 32.2597 40.552 32.2402 40.4417 32.2208C40.3314 32.2013 40.273 32.1753 40.1886 32.1429C40.1886 32.1429 40.0718 32.0975 40.0199 32.2143C39.981 32.3116 39.7085 33.0642 39.676 33.1551C39.6436 33.2459 39.689 33.3173 39.7474 33.3432C39.8837 33.3886 39.9875 33.4211 40.1691 33.4665C40.4287 33.5249 40.6428 33.5314 40.8504 33.5314C41.2786 33.5314 41.6679 33.473 41.9859 33.3562C42.3103 33.2394 42.5893 33.0318 42.8423 32.7593C43.1148 32.4608 43.2835 32.1494 43.4457 31.7212C43.6079 31.2994 43.7442 30.7739 43.8545 30.164L44.8991 24.2532H46.4238C46.4238 24.2532 46.5536 24.2597 46.5795 24.1169L46.7547 23.1502C46.7677 23.0594 46.7288 23.001 46.6055 23.001H45.1197C45.1262 22.9685 45.1975 22.443 45.3662 21.9564C45.4376 21.7487 45.5739 21.58 45.6906 21.4633C45.8074 21.3465 45.9372 21.2686 46.0799 21.2232C46.2292 21.1778 46.3914 21.1518 46.5795 21.1518C46.7158 21.1518 46.8585 21.1648 46.9623 21.1908C47.1051 21.2232 47.1635 21.2362 47.2024 21.2491C47.3516 21.2946 47.3776 21.2491 47.4035 21.1778L47.7604 20.2045C47.7993 20.0942 47.7085 20.0488 47.676 20.0358ZM26.9656 30.0602C26.9656 30.138 26.9072 30.2029 26.8293 30.2029H25.5966C25.5187 30.2029 25.4668 30.138 25.4668 30.0602V20.1656C25.4668 20.0877 25.5187 20.0229 25.5966 20.0229H26.8293C26.9072 20.0229 26.9656 20.0877 26.9656 20.1656V30.0602Z" fill="white"/>
</g>
</svg>
