<svg xmlns="http://www.w3.org/2000/svg" width="64" height="23" viewBox="0 0 64 23" fill="none">
<path d="M2.02459 9.0085C1.19627 8.99492 0.51378 9.6554 0.500202 10.4837C0.486623 11.312 1.1471 11.9945 1.97541 12.0081L2.02459 9.0085ZM63.0351 12.5697C63.6304 11.9936 63.646 11.044 63.0698 10.4486L53.6817 0.747514C53.1056 0.152204 52.1559 0.136637 51.5606 0.712743C50.9653 1.28885 50.9497 2.23847 51.5259 2.83378L59.8709 11.457L51.2477 19.8021C50.6524 20.3782 50.6368 21.3278 51.2129 21.9231C51.789 22.5184 52.7386 22.534 53.3339 21.9579L63.0351 12.5697ZM5.72491 12.0696C6.55323 12.0831 7.23572 11.4227 7.24929 10.5944C7.26287 9.76604 6.6024 9.08355 5.77408 9.06997L5.72491 12.0696ZM13.2731 9.1929C12.4448 9.17932 11.7623 9.8398 11.7487 10.6681C11.7351 11.4964 12.3956 12.1789 13.2239 12.1925L13.2731 9.1929ZM20.7229 12.3154C21.5512 12.329 22.2337 11.6685 22.2473 10.8402C22.2609 10.0119 21.6004 9.32942 20.7721 9.31584L20.7229 12.3154ZM28.2711 9.43877C27.4427 9.42519 26.7603 10.0857 26.7467 10.914C26.7331 11.7423 27.3936 12.4248 28.2219 12.4384L28.2711 9.43877ZM35.7209 12.5613C36.5492 12.5749 37.2317 11.9144 37.2453 11.0861C37.2588 10.2578 36.5984 9.57529 35.7701 9.56171L35.7209 12.5613ZM43.269 9.68464C42.4407 9.67106 41.7582 10.3315 41.7447 11.1599C41.7311 11.9882 42.3916 12.6707 43.2199 12.6842L43.269 9.68464ZM50.7189 12.8072C51.5472 12.8208 52.2297 12.1603 52.2433 11.332C52.2568 10.5036 51.5964 9.82115 50.768 9.80758L50.7189 12.8072ZM58.267 9.93051C57.4387 9.91693 56.7562 10.5774 56.7426 11.4057C56.7291 12.234 57.3895 12.9165 58.2179 12.9301L58.267 9.93051ZM1.97541 12.0081L5.72491 12.0696L5.77408 9.06997L2.02459 9.0085L1.97541 12.0081ZM13.2239 12.1925L20.7229 12.3154L20.7721 9.31584L13.2731 9.1929L13.2239 12.1925ZM28.2219 12.4384L35.7209 12.5613L35.7701 9.56171L28.2711 9.43877L28.2219 12.4384ZM43.2199 12.6842L50.7189 12.8072L50.768 9.80758L43.269 9.68464L43.2199 12.6842ZM58.2179 12.9301L61.9674 12.9916L62.0165 9.99198L58.267 9.93051L58.2179 12.9301ZM2.02459 9.0085C1.19627 8.99492 0.51378 9.6554 0.500202 10.4837C0.486623 11.312 1.1471 11.9945 1.97541 12.0081L2.02459 9.0085ZM63.0351 12.5697C63.6304 11.9936 63.646 11.044 63.0698 10.4486L53.6817 0.747514C53.1056 0.152204 52.1559 0.136637 51.5606 0.712743C50.9653 1.28885 50.9497 2.23847 51.5259 2.83378L59.8709 11.457L51.2477 19.8021C50.6524 20.3782 50.6368 21.3278 51.2129 21.9231C51.789 22.5184 52.7386 22.534 53.3339 21.9579L63.0351 12.5697ZM5.72491 12.0696C6.55323 12.0831 7.23572 11.4227 7.24929 10.5944C7.26287 9.76604 6.6024 9.08355 5.77408 9.06997L5.72491 12.0696ZM13.2731 9.1929C12.4448 9.17932 11.7623 9.8398 11.7487 10.6681C11.7351 11.4964 12.3956 12.1789 13.2239 12.1925L13.2731 9.1929ZM20.7229 12.3154C21.5512 12.329 22.2337 11.6685 22.2473 10.8402C22.2609 10.0119 21.6004 9.32942 20.7721 9.31584L20.7229 12.3154ZM28.2711 9.43877C27.4427 9.42519 26.7603 10.0857 26.7467 10.914C26.7331 11.7423 27.3936 12.4248 28.2219 12.4384L28.2711 9.43877ZM35.7209 12.5613C36.5492 12.5749 37.2317 11.9144 37.2453 11.0861C37.2588 10.2578 36.5984 9.57529 35.7701 9.56171L35.7209 12.5613ZM43.269 9.68464C42.4407 9.67106 41.7582 10.3315 41.7447 11.1599C41.7311 11.9882 42.3916 12.6707 43.2199 12.6842L43.269 9.68464ZM50.7189 12.8072C51.5472 12.8208 52.2297 12.1603 52.2433 11.332C52.2568 10.5036 51.5964 9.82115 50.768 9.80758L50.7189 12.8072ZM58.267 9.93051C57.4387 9.91693 56.7562 10.5774 56.7426 11.4057C56.7291 12.234 57.3895 12.9165 58.2179 12.9301L58.267 9.93051ZM1.97541 12.0081L5.72491 12.0696L5.77408 9.06997L2.02459 9.0085L1.97541 12.0081ZM13.2239 12.1925L20.7229 12.3154L20.7721 9.31584L13.2731 9.1929L13.2239 12.1925ZM28.2219 12.4384L35.7209 12.5613L35.7701 9.56171L28.2711 9.43877L28.2219 12.4384ZM43.2199 12.6842L50.7189 12.8072L50.768 9.80758L43.269 9.68464L43.2199 12.6842ZM58.2179 12.9301L61.9674 12.9916L62.0165 9.99198L58.267 9.93051L58.2179 12.9301Z" fill="url(#paint0_linear_344_14839)"/>
<defs>
<linearGradient id="paint0_linear_344_14839" x1="1.9918" y1="11.0082" x2="61.9837" y2="11.9917" gradientUnits="userSpaceOnUse">
<stop stop-color="#2D5BD1"/>
<stop offset="1" stop-color="#8A7DED"/>
</linearGradient>
</defs>
</svg>
