<?xml version="1.0" encoding="UTF-8"?>
<!-- Generated by Pixelmator Pro 3.6.2 -->
<svg width="854" height="183" viewBox="0 0 854 183" xmlns="http://www.w3.org/2000/svg">
    <g id="Layer-1">
        <g id="Group">
            <path id="Path" fill="#231f20" stroke="none" d="M 110.030876 40.548401 C 96.350861 40.548401 84.212494 47.266708 76.735435 57.575424 C 69.258629 47.266708 57.120258 40.548401 43.440502 40.548401 C 20.773062 40.548401 2.331797 58.989662 2.331797 81.657356 L 2.331797 135.200958 L 17.956797 135.200958 L 17.956797 81.657356 C 17.956797 67.605537 29.388681 56.173393 43.440502 56.173393 C 57.462055 56.173393 68.874107 67.556831 68.922935 81.567329 C 68.922935 81.597336 68.921913 81.62722 68.921913 81.657356 L 68.921913 135.200958 L 84.546913 135.200958 L 84.546913 81.657356 L 84.549202 81.657356 C 84.549202 81.62722 84.547935 81.597336 84.547935 81.567329 C 84.596764 67.556831 96.009064 56.173393 110.030876 56.173393 C 124.082695 56.173393 135.514572 67.605537 135.514572 81.657356 L 135.514572 135.200958 L 151.139572 135.200958 L 151.139572 81.657356 C 151.139572 58.989662 132.698318 40.548401 110.030876 40.548401 Z"/>
            <path id="path1" fill="#231f20" stroke="none" d="M 281.318909 135.200958 L 265.693909 135.200958 L 265.693909 81.657356 C 265.693909 58.989662 284.135437 40.548401 306.802887 40.548401 C 329.470306 40.548401 347.911591 58.989662 347.911591 81.657356 L 332.286591 81.657356 C 332.286591 67.605537 320.854706 56.173393 306.802887 56.173393 C 292.751068 56.173393 281.318909 67.605537 281.318909 81.657356 L 281.318909 135.200958 Z"/>
            <path id="path2" fill="#231f20" stroke="none" d="M 403.771729 40.539749 C 375.266785 40.539749 352.076477 63.730057 352.076477 92.235001 C 352.076477 92.841667 352.090698 93.445023 352.111572 94.04673 L 352.077484 94.04673 L 352.077484 180.512436 L 367.702484 180.512436 L 367.702484 129.228912 C 377.023834 138.319595 389.753723 143.930511 403.771729 143.930511 C 432.276672 143.930511 455.467224 120.739944 455.467224 92.235001 C 455.467224 63.730057 432.276672 40.539749 403.771729 40.539749 Z M 403.771729 128.305511 C 383.882385 128.305511 367.701477 112.124321 367.701477 92.235001 C 367.701477 72.34568 383.882385 56.164749 403.771729 56.164749 C 423.661041 56.164749 439.842224 72.34568 439.842224 92.235001 C 439.842224 112.124321 423.661041 128.305511 403.771729 128.305511 Z"/>
            <path id="path3" fill="#231f20" stroke="none" d="M 514.890808 40.539749 C 500.887543 40.539749 488.169342 46.138962 478.850555 55.212852 L 478.850555 3.952225 L 463.225555 3.952225 L 463.225555 90.552589 C 463.207489 91.111572 463.195282 91.671822 463.195282 92.235001 L 463.225555 92.235001 L 463.225555 147.495728 L 478.850555 147.495728 L 478.850555 90.821526 C 479.595947 71.585281 495.475006 56.164749 514.890808 56.164749 C 534.779846 56.164749 550.96106 72.345932 550.96106 92.235001 L 550.96106 146.895035 L 566.58606 146.895035 L 566.58606 92.235001 C 566.58606 63.730057 543.395752 40.539749 514.890808 40.539749 Z"/>
            <g id="g1">
                <path id="path4" fill="#231f20" stroke="none" d="M 208.687592 56.164749 C 226.143646 56.164749 240.74173 68.629402 244.052628 85.12542 L 259.89151 85.12542 C 256.416321 59.972832 234.780624 40.539749 208.687592 40.539749 C 182.594559 40.539749 160.958603 59.972832 157.483414 85.12542 L 173.322296 85.12542 C 176.633194 68.629402 191.231277 56.164749 208.687592 56.164749 Z"/>
                <path id="path5" fill="#231f20" stroke="none" d="M 208.687592 128.305511 C 191.267899 128.305511 176.693222 115.89312 173.342392 99.448341 L 157.49791 99.448341 C 161.018372 124.550568 182.630417 143.930511 208.687592 143.930511 C 234.744522 143.930511 256.356812 124.550568 259.877014 99.448341 L 244.032547 99.448341 C 240.681717 115.89312 226.107285 128.305511 208.687592 128.305511 Z"/>
            </g>
            <g id="g2">
                <path id="path6" fill="#231f20" stroke="none" d="M 735.148132 56.164749 C 752.585876 56.164749 767.172241 68.603203 770.503235 85.07354 L 786.34491 85.07354 C 782.847107 59.946129 761.223083 40.539749 735.148132 40.539749 C 709.072876 40.539749 687.448853 59.946129 683.95105 85.07354 L 699.792725 85.07354 C 703.123718 68.603203 717.710083 56.164749 735.148132 56.164749 Z"/>
                <path id="path7" fill="#231f20" stroke="none" d="M 735.148132 128.305511 C 717.710083 128.305511 703.123718 115.86692 699.792725 99.396461 L 683.95105 99.396461 C 687.448853 124.523865 709.072876 143.930511 735.148132 143.930511 C 761.223083 143.930511 782.847107 124.523865 786.34491 99.396461 L 770.503235 99.396461 C 767.172241 115.86692 752.586121 128.305511 735.148132 128.305511 Z"/>
            </g>
            <path id="path8" fill="#231f20" stroke="none" d="M 677.211487 85.07354 C 673.713684 59.946129 652.089966 40.539749 626.014709 40.539749 C 597.509766 40.539749 574.319214 63.730057 574.319214 92.235001 C 574.319214 120.739944 597.509766 143.930511 626.014709 143.930511 C 646.858215 143.930511 664.855957 131.529312 673.026001 113.718864 L 654.968994 113.718864 C 648.389709 122.564011 637.86084 128.305511 626.014709 128.305511 C 606.125366 128.305511 589.944214 112.124321 589.944214 92.235001 C 589.944214 72.34568 606.125366 56.164749 626.014709 56.164749 C 643.452698 56.164749 658.038818 68.603203 661.369812 85.07354 L 605.577332 85.07354 L 605.577332 99.39595 L 609.438049 99.396461 L 661.369812 99.396461 L 677.211487 99.396461 C 677.211487 99.396332 677.211487 99.39608 677.211792 99.39595 C 677.537537 97.054489 677.709961 94.664711 677.709961 92.235001 C 677.709961 89.805168 677.537537 87.415131 677.211487 85.07354 Z"/>
            <path id="path9" fill="#231f20" stroke="none" d="M 853.223938 99.396461 L 811.867004 99.396461 L 811.867004 85.07354 L 853.223938 85.07354 L 853.223938 99.396461 Z"/>
        </g>
    </g>
</svg>
