<?xml version="1.0" encoding="UTF-8"?>
<!-- Generated by Pixelmator Pro 3.6.2 -->
<svg width="183" height="183" viewBox="0 0 183 183" xmlns="http://www.w3.org/2000/svg">
    <g id="Layer-1">
        <g id="Group">
            <g id="g2">
                <path id="path6" fill="#231f20" stroke="none" d="M 94.143143 56.164375 C 111.580887 56.161911 126.169006 68.598305 129.502319 85.068169 L 145.343994 85.065933 C 141.842651 59.939018 120.215881 40.53569 94.14093 40.539383 C 68.065674 40.54306 46.444393 59.952492 42.950142 85.080399 L 58.791817 85.078163 C 62.120483 68.607353 76.705093 56.16684 94.143143 56.164375 Z"/>
                <path id="path7" fill="#231f20" stroke="none" d="M 94.153336 128.305145 C 76.715286 128.307602 62.127163 115.871071 58.793842 99.401085 L 42.952168 99.40332 C 46.453518 124.530228 68.080284 143.933823 94.15554 143.930145 C 120.230492 143.926453 141.851776 124.516754 145.346024 99.388855 L 129.504349 99.39109 C 126.175682 115.862022 111.591324 128.302673 94.153336 128.305145 Z"/>
            </g>
        </g>
    </g>
</svg>
